name C:\Users\u0101727\Documents\MyRepositories\predictcpgait/OpenSimModel/subject1/IK/Gait/KS_Gait_average_r.mot
datacolumns 22
datarows 10
range 0.68333333 0.77651515
endheader
time	lower_torso_RX	lower_torso_RY	lower_torso_RZ	lower_torso_TX	lower_torso_TY	lower_torso_TZ	hip_flex_l	hip_add_l	hip_rot_l	hip_flex_r	hip_add_r	hip_rot_r	knee_flex_l	knee_flex_r	ankle_flex_l	ankle_flex_r	subt_angle_l	subt_angle_r	lumbar_pitch	lumbar_roll	lumbar_yaw	
          0.68333333	         -6.50930746	         -3.65562632	          3.89432545	          0.70404527	          0.79183062	          0.00979627	         32.94617553	         -5.30168248	          9.61796160	          5.59569892	          9.04510130	          7.35677295	         61.93241384	         68.06084013	         18.30935600	         -2.40107158	        -24.90042714	        -21.80093750	        -35.48172960	         -2.26651260	          7.70699722	
          0.69368687	         -6.62146356	         -3.56475777	          3.69711867	          0.71357531	          0.79357139	          0.00932408	         32.23438654	         -5.62312963	          9.14783432	          7.01397892	          8.76697289	          6.56339338	         61.68012020	         68.74066983	         19.43328149	         -1.65630971	        -23.59788026	        -21.97357081	        -35.46004539	         -2.08556336	          7.59214161	
          0.70404040	         -6.76215096	         -3.46149736	          3.49625612	          0.72295582	          0.79552721	          0.00888571	         31.49100483	         -5.98830074	          8.68321913	          8.49187423	          8.53540208	          5.81604107	         61.32635635	         69.26536912	         20.47768778	         -0.69275589	        -22.27630948	        -21.92841131	        -35.44108575	         -1.86071713	          7.48297614	
          0.71439394	         -6.92588848	         -3.34251363	          3.29787911	          0.73221015	          0.79766293	          0.00847592	         30.71461820	         -6.37763816	          8.24318942	         10.01505466	          8.34780731	          5.11934999	         60.88570382	         69.64302192	         21.43946106	          0.41649512	        -20.97662975	        -21.69418600	        -35.42595644	         -1.59537242	          7.37477107	
          0.72474747	         -7.10744868	         -3.20460442	          3.10777776	          0.74136155	          0.79994238	          0.00808985	         29.90446867	         -6.77383197	          7.84398852	         11.56879248	          8.20025194	          4.47668822	         60.37189913	         69.88215028	         22.31826650	          1.59892582	        -19.73215318	        -21.33056507	        -35.41587550	         -1.29299124	          7.26311712	
          0.73510101	         -7.30214656	         -3.04484455	          2.93117338	          0.75043235	          0.80232892	          0.00772323	         29.06064777	         -7.16280679	          7.49816888	         13.13831870	          8.08778345	          3.89015070	         59.79781288	         69.99013307	         23.11638777	          2.78758729	        -18.56770642	        -20.91893575	        -35.41206996	         -0.95688760	          7.14416571	
          0.74545455	         -7.50600966	         -2.86069430	          2.77257163	          0.75944335	          0.80478603	          0.00737263	         28.18421910	         -7.53429279	          7.21407555	         14.70915415	          8.00479993	          3.36063170	         59.17557485	         69.97193804	         23.83843307	          3.92474594	        -17.49932527	        -20.54987214	        -35.41570158	         -0.59009859	          7.01480279	
          0.75580808	         -7.71582348	         -2.65007240	          2.63570118	          0.76841338	          0.80727772	          0.00703556	         27.27724874	         -7.88195919	          6.99570119	         16.26736828	          7.94539884	          2.88798261	         58.51677696	         69.82928159	         24.49090739	          4.96399534	        -16.53450967	        -20.30944368	        -35.42784126	         -0.19534800	          6.87274560	
          0.76616162	         -7.92906340	         -2.41139747	          2.52353943	          0.77735904	          0.80976893	          0.00671050	         26.34272911	         -8.20314382	          6.84289593	         17.79973903	          7.90366578	          2.47124043	         57.83268342	         69.56027645	         25.08167227	          5.87083615	        -15.67299148	        -20.26663074	        -35.44949680	          0.22490666	          6.71656013	
          0.77651515	         -8.14373873	         -2.14360017	          2.43841399	          0.78629459	          0.81222590	          0.00639692	         25.38439447	         -8.49825936	          6.75187857	         19.29381188	          7.87387588	          2.10889815	         57.13439013	         69.15957580	         25.61933542	          6.62189673	        -14.90793429	        -20.46381217	        -35.48168285	          0.66836791	          6.54560800	
